<svg width="202" height="143" viewBox="0 0 202 143" fill="none" xmlns="http://www.w3.org/2000/svg">
<g clip-path="url(#clip0_2_8)">
<path d="M141.351 64.4795C138.727 34.2001 126.274 11.8025 102.115 13.8917C89.7974 14.9634 80.9604 21.9635 75.8078 33.1962C78.7988 33.671 81.3003 34.2543 82.6055 34.9733L86.7113 37.2389L85.5421 41.7835L83.0133 51.5782L81.2051 58.5919L74.5978 55.5802C73.4014 55.0376 72.1234 54.617 70.7503 54.3321C70.3288 59.6772 70.3832 65.4156 70.9134 71.5068C71.5524 78.4255 72.6944 84.8558 74.3531 90.6485C74.5298 90.5807 74.7337 90.5128 74.8833 90.4586L81.8577 87.4198L83.2852 94.8811L85.1342 104.581L85.9907 109.098L83.6931 110.238C90.2733 118.771 99.2054 123.329 110.354 122.366C132.908 120.412 144.383 99.575 141.337 64.466L141.351 64.4795ZM109.742 107.253C99.4501 108.149 92.2718 95.1524 90.1509 69.7161C87.8669 43.8998 93.0875 29.8996 102.944 29.0585C113.875 28.1089 120.074 42.394 122.182 66.5823C124.357 91.5846 120.428 106.344 109.755 107.267L109.742 107.253Z" fill="#00AABD"/>
<path d="M53.9736 111.445L27.7889 73.908L53.9328 34.58H55.5643C61.3559 34.58 77.8335 35.7873 81.1372 37.6188L83.1901 38.7583L79.1794 54.3322L75.8758 52.8263C73.3742 51.6868 70.56 51.022 67.4738 50.8321L54.7078 73.189L67.3651 95.044C70.5872 94.854 73.9452 94.1757 76.1069 93.2397L79.5873 91.7203L82.5783 107.403L80.5118 108.42C76.9498 110.184 62.1852 111.432 55.5507 111.432H53.96L53.9736 111.445Z" fill="#006397"/>
<path d="M24.1182 73.9487L26.4022 70.5164L36.8299 54.8205L41.833 14.6785L26.0487 12.725L0 22.0991L1.50909 36.7776L21.1 29.6283L21.4263 29.669L10.7403 115.502L28.9989 117.767L32.8872 86.5244L26.4838 77.3402L24.1182 73.9487Z" fill="#00AABD"/>
<path d="M118.253 117.265C120.822 104.839 131.236 98.0963 143.39 100.565C155.789 103.129 162.301 113.412 159.882 125.866C157.38 137.94 147.319 145.062 134.757 142.471C122.358 139.907 115.751 129.339 118.253 117.279V117.265ZM129.713 90.3772L130.679 85.2356C132.473 75.0339 137.816 65.6598 148.611 57.2624C155.395 51.8902 162.03 46.9657 163.24 41.1323C164.395 35.5567 161.377 30.9171 152.499 28.7601C145.838 27.3899 137.34 28.0139 131.155 30.4829L128.952 2.79458C137.381 0.244161 150.569 -1.51943 166.734 1.81783C195.039 7.6648 204.896 25.3414 201.293 42.6924C197.908 59.026 185.25 66.8807 176.862 72.8227C168.719 78.6018 164.137 85.3713 162.234 94.0807L161.581 96.9567L129.713 90.3772Z" fill="#006397"/>
</g>
<defs>
<clipPath id="clip0_2_8">
<rect width="202" height="143" fill="white"/>
</clipPath>
</defs>
</svg>
